<svg id="svg" version="1.1" xmlns="http://www.w3.org/2000/svg" style="display: block;" viewBox="0 0 525 525"><path d="M0,0 L525,0 L525,525 L0,525 Z " transform="translate(0,0)" style="fill: #F9FAFA;"/><path d="M0,0 L525,0 L525,525 L0,525 Z M316,14 L316,15 L315,15 L315,16 L299,16 L299,17 L292,17 L292,18 L285,18 L285,19 L283,19 L283,20 L278,20 L278,21 L272,21 L272,22 L267,22 L267,23 L266,23 L266,24 L261,24 L261,25 L256,25 L256,26 L252,26 L252,27 L251,27 L251,28 L247,28 L247,29 L243,29 L243,30 L240,30 L240,31 L239,31 L239,32 L234,32 L234,33 L231,33 L231,34 L227,34 L227,35 L226,35 L226,36 L223,36 L223,37 L219,37 L219,38 L215,38 L215,39 L214,39 L214,40 L211,40 L211,41 L208,41 L208,42 L205,42 L205,43 L203,43 L203,44 L201,44 L201,45 L199,45 L199,46 L195,46 L195,47 L194,47 L194,48 L192,48 L192,49 L190,49 L190,50 L188,50 L188,51 L187,51 L187,52 L185,52 L185,53 L181,53 L181,54 L179,54 L179,55 L178,55 L178,56 L177,56 L177,57 L174,57 L174,58 L172,58 L172,59 L168,59 L168,60 L166,60 L166,61 L158,61 L158,62 L153,62 L153,63 L146,63 L146,64 L144,64 L144,65 L140,65 L140,66 L136,66 L136,67 L133,67 L133,68 L132,68 L132,69 L128,69 L128,70 L125,70 L125,71 L123,71 L123,72 L122,72 L122,73 L120,73 L120,74 L117,74 L117,75 L115,75 L115,76 L114,76 L114,77 L112,77 L112,78 L110,78 L110,79 L108,79 L108,81 L105,81 L105,82 L104,82 L104,83 L102,83 L102,84 L101,84 L101,85 L100,85 L100,86 L98,86 L98,87 L97,87 L97,88 L96,88 L96,89 L94,89 L94,90 L93,90 L93,91 L92,91 L92,92 L91,92 L91,93 L90,93 L90,94 L89,94 L89,95 L88,95 L88,96 L87,96 L87,97 L86,97 L86,98 L84,98 L84,99 L83,99 L83,101 L82,101 L82,102 L81,102 L81,103 L80,103 L80,104 L79,104 L79,105 L78,105 L78,106 L77,106 L77,107 L76,107 L76,109 L75,109 L75,110 L74,110 L74,111 L73,111 L73,113 L72,113 L72,114 L71,114 L71,115 L70,115 L70,117 L69,117 L69,118 L68,118 L68,120 L67,120 L67,122 L66,122 L66,123 L65,123 L65,125 L64,125 L64,127 L63,127 L63,129 L62,129 L62,131 L61,131 L61,134 L60,134 L60,136 L59,136 L59,138 L58,138 L58,140 L57,140 L57,142 L56,142 L56,145 L55,145 L55,148 L54,148 L54,152 L53,152 L53,159 L52,159 L52,162 L51,162 L51,168 L50,168 L50,225 L49,225 L49,243 L50,243 L50,376 L51,376 L51,380 L52,380 L52,381 L53,381 L53,391 L52,391 L52,393 L51,393 L51,400 L50,400 L50,407 L49,407 L49,436 L50,436 L50,443 L51,443 L51,448 L52,448 L52,450 L53,450 L53,454 L54,454 L54,456 L55,456 L55,459 L56,459 L56,461 L57,461 L57,464 L58,464 L58,465 L59,465 L59,467 L60,467 L60,468 L61,468 L61,470 L62,470 L62,471 L63,471 L63,473 L64,473 L64,474 L65,474 L65,475 L66,475 L66,476 L67,476 L67,477 L68,477 L68,478 L69,478 L69,479 L70,479 L70,481 L71,481 L71,482 L72,482 L72,483 L73,483 L73,484 L74,484 L74,485 L76,485 L76,486 L77,486 L77,487 L78,487 L78,488 L79,488 L79,489 L80,489 L80,490 L82,490 L82,491 L84,491 L84,492 L85,492 L85,493 L87,493 L87,494 L89,494 L89,495 L91,495 L91,496 L92,496 L92,497 L94,497 L94,498 L98,498 L98,499 L101,499 L101,500 L102,500 L102,501 L105,501 L105,502 L109,502 L109,503 L114,503 L114,504 L115,504 L115,505 L121,505 L121,506 L129,506 L129,507 L142,507 L142,508 L144,508 L144,509 L166,509 L166,508 L168,508 L168,507 L179,507 L179,506 L191,506 L191,505 L197,505 L197,504 L198,504 L198,503 L207,503 L207,502 L212,502 L212,501 L219,501 L219,500 L220,500 L220,499 L225,499 L225,498 L231,498 L231,497 L236,497 L236,496 L237,496 L237,495 L243,495 L243,494 L247,494 L247,493 L251,493 L251,492 L253,492 L253,491 L257,491 L257,490 L261,490 L261,489 L264,489 L264,488 L266,488 L266,487 L269,487 L269,486 L273,486 L273,485 L276,485 L276,484 L278,484 L278,483 L282,483 L282,482 L285,482 L285,481 L289,481 L289,480 L292,480 L292,479 L294,479 L294,478 L298,478 L298,477 L301,477 L301,476 L304,476 L304,475 L307,475 L307,474 L311,474 L311,473 L314,473 L314,472 L318,472 L318,471 L320,471 L320,470 L325,470 L325,469 L329,469 L329,468 L331,468 L331,467 L333,467 L333,466 L334,466 L334,465 L335,465 L335,464 L336,464 L336,463 L337,463 L337,462 L338,462 L338,461 L339,461 L339,460 L340,460 L340,459 L341,459 L341,458 L344,458 L344,457 L349,457 L349,456 L352,456 L352,455 L354,455 L354,454 L358,454 L358,453 L362,453 L362,452 L365,452 L365,451 L366,451 L366,450 L370,450 L370,449 L373,449 L373,448 L374,448 L374,447 L376,447 L376,446 L378,446 L378,445 L380,445 L380,444 L382,444 L382,443 L383,443 L383,442 L386,442 L386,441 L388,441 L388,440 L389,440 L389,439 L390,439 L390,438 L392,438 L392,437 L395,437 L395,436 L396,436 L396,435 L397,435 L397,434 L399,434 L399,433 L400,433 L400,432 L401,432 L401,431 L402,431 L402,430 L404,430 L404,429 L405,429 L405,428 L406,428 L406,426 L408,426 L408,425 L409,425 L409,424 L410,424 L410,423 L411,423 L411,422 L412,422 L412,421 L413,421 L413,420 L414,420 L414,419 L415,419 L415,418 L416,418 L416,417 L417,417 L417,416 L418,416 L418,415 L419,415 L419,414 L420,414 L420,413 L421,413 L421,411 L422,411 L422,410 L423,410 L423,409 L424,409 L424,408 L425,408 L425,406 L426,406 L426,405 L427,405 L427,404 L428,404 L428,402 L429,402 L429,401 L430,401 L430,399 L431,399 L431,398 L432,398 L432,396 L433,396 L433,394 L434,394 L434,393 L435,393 L435,391 L436,391 L436,389 L437,389 L437,387 L438,387 L438,384 L439,384 L439,382 L440,382 L440,379 L441,379 L441,377 L442,377 L442,373 L443,373 L443,370 L444,370 L444,368 L445,368 L445,366 L446,366 L446,361 L447,361 L447,357 L448,357 L448,349 L449,349 L449,337 L450,337 L450,268 L449,268 L449,231 L450,231 L450,178 L449,178 L449,162 L450,162 L450,156 L451,156 L451,153 L452,153 L452,149 L453,149 L453,147 L454,147 L454,144 L455,144 L455,140 L456,140 L456,136 L457,136 L457,131 L458,131 L458,126 L459,126 L459,113 L460,113 L460,107 L459,107 L459,92 L458,92 L458,85 L457,85 L457,79 L456,79 L456,75 L455,75 L455,72 L454,72 L454,69 L453,69 L453,68 L452,68 L452,65 L451,65 L451,64 L450,64 L450,62 L449,62 L449,60 L448,60 L448,58 L447,58 L447,57 L446,57 L446,55 L445,55 L445,54 L444,54 L444,53 L443,53 L443,52 L442,52 L442,51 L441,51 L441,49 L440,49 L440,48 L439,48 L439,47 L438,47 L438,46 L437,46 L437,45 L436,45 L436,44 L435,44 L435,42 L433,42 L433,41 L432,41 L432,40 L431,40 L431,39 L430,39 L430,38 L429,38 L429,37 L427,37 L427,36 L426,36 L426,35 L425,35 L425,34 L424,34 L424,33 L422,33 L422,32 L420,32 L420,31 L419,31 L419,30 L417,30 L417,29 L415,29 L415,28 L413,28 L413,27 L412,27 L412,26 L409,26 L409,25 L407,25 L407,24 L404,24 L404,23 L403,23 L403,22 L399,22 L399,21 L395,21 L395,20 L391,20 L391,19 L389,19 L389,18 L384,18 L384,17 L379,17 L379,16 L362,16 L362,15 L361,15 L361,14 Z " transform="translate(0,0)" style="fill: #000000;"/><path d="M0,0 L171,0 L171,1 L177,1 L177,2 L179,2 L179,3 L183,3 L183,4 L188,4 L188,5 L192,5 L192,6 L198,6 L198,7 L201,7 L201,8 L203,8 L203,9 L205,9 L205,10 L208,10 L208,11 L211,11 L211,12 L215,12 L215,13 L217,13 L217,14 L220,14 L220,15 L221,15 L221,17 L223,17 L223,18 L226,18 L226,19 L227,19 L227,20 L229,20 L229,21 L230,21 L230,22 L232,22 L232,23 L233,23 L233,24 L234,24 L234,25 L236,25 L236,26 L237,26 L237,27 L238,27 L238,28 L239,28 L239,29 L241,29 L241,31 L243,31 L243,32 L244,32 L244,33 L245,33 L245,34 L246,34 L246,35 L248,35 L248,36 L249,36 L249,37 L250,37 L250,38 L251,38 L251,39 L252,39 L252,40 L253,40 L253,42 L254,42 L254,43 L256,43 L256,45 L257,45 L257,46 L258,46 L258,47 L259,47 L259,48 L260,48 L260,50 L261,50 L261,51 L262,51 L262,52 L263,52 L263,54 L264,54 L264,55 L265,55 L265,57 L266,57 L266,58 L267,58 L267,61 L268,61 L268,62 L269,62 L269,63 L270,63 L270,67 L271,67 L271,68 L272,68 L272,70 L273,70 L273,71 L274,71 L274,75 L275,75 L275,78 L276,78 L276,81 L277,81 L277,85 L278,85 L278,92 L277,92 L277,93 L276,93 L276,94 L275,94 L275,95 L274,95 L274,97 L273,97 L273,98 L272,98 L272,99 L271,99 L271,101 L269,101 L269,102 L268,102 L268,103 L267,103 L267,105 L266,105 L266,106 L265,106 L265,107 L264,107 L264,108 L263,108 L263,109 L262,109 L262,111 L261,111 L261,112 L260,112 L260,113 L259,113 L259,114 L258,114 L258,116 L257,116 L257,117 L256,117 L256,118 L255,118 L255,119 L254,119 L254,121 L253,121 L253,122 L252,122 L252,123 L251,123 L251,124 L250,124 L250,126 L249,126 L249,127 L248,127 L248,128 L247,128 L247,129 L246,129 L246,130 L245,130 L245,132 L244,132 L244,133 L243,133 L243,134 L242,134 L242,135 L241,135 L241,136 L240,136 L240,140 L239,140 L239,169 L240,169 L240,168 L241,168 L241,166 L243,166 L243,164 L244,164 L244,163 L246,163 L246,161 L247,161 L247,160 L248,160 L248,159 L249,159 L249,158 L251,158 L251,156 L253,156 L253,154 L255,154 L255,153 L256,153 L256,152 L257,152 L257,150 L258,150 L258,149 L259,149 L259,148 L260,148 L260,146 L262,146 L262,144 L263,144 L263,143 L264,143 L264,141 L265,141 L265,140 L266,140 L266,139 L267,139 L267,137 L268,137 L268,136 L269,136 L269,135 L270,135 L270,134 L271,134 L271,133 L272,133 L272,132 L273,132 L273,131 L274,131 L274,129 L275,129 L275,128 L276,128 L276,127 L277,127 L277,125 L278,125 L278,124 L279,124 L279,122 L280,122 L280,121 L282,121 L282,118 L283,118 L283,117 L284,117 L284,115 L287,115 L287,278 L286,278 L286,284 L285,284 L285,292 L284,292 L284,297 L283,297 L283,301 L282,301 L282,305 L281,305 L281,306 L280,306 L280,308 L279,308 L279,312 L278,312 L278,314 L277,314 L277,317 L276,317 L276,319 L275,319 L275,322 L274,322 L274,324 L273,324 L273,326 L272,326 L272,328 L271,328 L271,330 L270,330 L270,331 L269,331 L269,333 L268,333 L268,335 L267,335 L267,336 L266,336 L266,338 L265,338 L265,339 L264,339 L264,341 L263,341 L263,342 L262,342 L262,343 L261,343 L261,344 L260,344 L260,346 L259,346 L259,347 L258,347 L258,348 L257,348 L257,350 L256,350 L256,351 L255,351 L255,352 L254,352 L254,353 L253,353 L253,354 L252,354 L252,355 L251,355 L251,356 L250,356 L250,357 L249,357 L249,358 L248,358 L248,359 L247,359 L247,360 L246,360 L246,361 L245,361 L245,362 L243,362 L243,363 L242,363 L242,364 L241,364 L241,365 L240,365 L240,366 L239,366 L239,367 L238,367 L238,368 L237,368 L237,369 L235,369 L235,370 L234,370 L234,371 L232,371 L232,372 L230,372 L230,373 L229,373 L229,374 L227,374 L227,375 L225,375 L225,376 L222,376 L222,377 L221,377 L221,378 L219,378 L219,379 L217,379 L217,380 L216,380 L216,381 L214,381 L214,382 L212,382 L212,383 L210,383 L210,384 L207,384 L207,385 L206,385 L206,386 L203,386 L203,387 L200,387 L200,388 L195,388 L195,389 L194,389 L194,390 L190,390 L190,391 L187,391 L187,392 L185,392 L185,393 L69,393 L69,394 L-4,394 L-4,393 L-15,393 L-15,392 L-18,392 L-18,391 L-22,391 L-22,390 L-26,390 L-26,389 L-27,389 L-27,388 L-30,388 L-30,387 L-36,387 L-36,386 L-37,386 L-37,385 L-40,385 L-40,382 L-41,382 L-41,381 L-44,381 L-44,380 L-46,380 L-46,379 L-48,379 L-48,378 L-50,378 L-50,377 L-52,377 L-52,376 L-53,376 L-53,375 L-55,375 L-55,374 L-56,374 L-56,373 L-58,373 L-58,372 L-59,372 L-59,371 L-60,371 L-60,370 L-61,370 L-61,369 L-62,369 L-62,368 L-64,368 L-64,367 L-65,367 L-65,366 L-66,366 L-66,365 L-68,365 L-68,364 L-69,364 L-69,362 L-70,362 L-70,361 L-71,361 L-71,360 L-72,360 L-72,359 L-73,359 L-73,358 L-74,358 L-74,356 L-75,356 L-75,355 L-76,355 L-76,354 L-77,354 L-77,353 L-78,353 L-78,352 L-79,352 L-79,349 L-80,349 L-80,348 L-81,348 L-81,345 L-82,345 L-82,342 L-83,342 L-83,339 L-84,339 L-84,334 L-85,334 L-85,317 L-84,317 L-84,315 L-83,315 L-83,311 L-82,311 L-82,308 L-81,308 L-81,303 L-80,303 L-80,302 L-78,302 L-78,299 L-77,299 L-77,295 L-76,295 L-76,293 L-75,293 L-75,292 L-74,292 L-74,289 L-73,289 L-73,285 L-72,285 L-72,283 L-70,283 L-70,282 L-69,282 L-69,278 L-68,278 L-68,277 L-67,277 L-67,275 L-65,275 L-65,272 L-64,272 L-64,271 L-63,271 L-63,269 L-62,269 L-62,268 L-61,268 L-61,266 L-60,266 L-60,264 L-59,264 L-59,263 L-58,263 L-58,262 L-57,262 L-57,261 L-55,261 L-55,275 L-54,275 L-54,281 L-53,281 L-53,285 L-52,285 L-52,289 L-51,289 L-51,292 L-50,292 L-50,295 L-49,295 L-49,297 L-48,297 L-48,300 L-47,300 L-47,302 L-46,302 L-46,303 L-45,303 L-45,305 L-44,305 L-44,307 L-43,307 L-43,309 L-42,309 L-42,311 L-41,311 L-41,313 L-40,313 L-40,314 L-39,314 L-39,316 L-38,316 L-38,317 L-37,317 L-37,318 L-36,318 L-36,320 L-35,320 L-35,321 L-34,321 L-34,322 L-33,322 L-33,323 L-32,323 L-32,324 L-31,324 L-31,325 L-30,325 L-30,326 L-29,326 L-29,327 L-28,327 L-28,328 L-27,328 L-27,329 L-26,329 L-26,330 L-23,330 L-23,331 L-22,331 L-22,332 L-20,332 L-20,333 L-19,333 L-19,334 L-17,334 L-17,335 L-13,335 L-13,336 L-10,336 L-10,337 L-9,337 L-9,338 L-7,338 L-7,339 L0,339 L0,340 L132,340 L132,339 L180,339 L180,338 L184,338 L184,337 L188,337 L188,336 L190,336 L190,335 L192,335 L192,334 L194,334 L194,333 L197,333 L197,332 L198,332 L198,331 L200,331 L200,330 L201,330 L201,329 L203,329 L203,328 L205,328 L205,327 L206,327 L206,326 L207,326 L207,325 L209,325 L209,324 L210,324 L210,323 L212,323 L212,322 L213,322 L213,320 L214,320 L214,319 L215,319 L215,318 L216,318 L216,317 L217,317 L217,316 L218,316 L218,315 L219,315 L219,313 L220,313 L220,312 L221,312 L221,310 L222,310 L222,309 L223,309 L223,307 L224,307 L224,305 L225,305 L225,304 L226,304 L226,301 L227,301 L227,300 L228,300 L228,298 L229,298 L229,296 L230,296 L230,291 L231,291 L231,288 L232,288 L232,283 L233,283 L233,278 L234,278 L234,263 L235,263 L235,250 L236,250 L236,244 L235,244 L235,197 L234,197 L234,172 L233,172 L233,140 L232,140 L232,139 L230,139 L230,138 L223,138 L223,139 L221,139 L221,140 L220,140 L220,141 L219,141 L219,142 L217,142 L217,143 L216,143 L216,144 L214,144 L214,145 L213,145 L213,146 L212,146 L212,147 L211,147 L211,148 L209,148 L209,150 L207,150 L207,152 L204,152 L204,151 L203,151 L203,150 L202,150 L202,149 L201,149 L201,148 L200,148 L200,147 L199,147 L199,146 L198,146 L198,145 L197,145 L197,144 L196,144 L196,143 L194,143 L194,142 L193,142 L193,141 L192,141 L192,140 L191,140 L191,139 L190,139 L190,138 L189,138 L189,137 L188,137 L188,136 L187,136 L187,135 L186,135 L186,134 L185,134 L185,133 L184,133 L184,132 L183,132 L183,131 L182,131 L182,130 L181,130 L181,129 L180,129 L180,128 L179,128 L179,127 L178,127 L178,126 L177,126 L177,125 L176,125 L176,124 L175,124 L175,123 L174,123 L174,122 L173,122 L173,121 L172,121 L172,120 L170,120 L170,118 L169,118 L169,117 L168,117 L168,116 L167,116 L167,115 L166,115 L166,114 L165,114 L165,113 L164,113 L164,112 L163,112 L163,111 L162,111 L162,110 L161,110 L161,109 L160,109 L160,108 L159,108 L159,107 L157,107 L157,106 L156,106 L156,105 L155,105 L155,104 L154,104 L154,103 L153,103 L153,102 L152,102 L152,101 L151,101 L151,100 L150,100 L150,99 L149,99 L149,98 L148,98 L148,97 L147,97 L147,96 L146,96 L146,93 L147,93 L147,92 L148,92 L148,90 L150,90 L150,89 L151,89 L151,86 L152,86 L152,85 L153,85 L153,84 L154,84 L154,83 L155,83 L155,82 L157,82 L157,81 L162,81 L162,78 L163,78 L163,76 L164,76 L164,75 L165,75 L165,73 L166,73 L166,70 L167,70 L167,69 L168,69 L168,67 L169,67 L169,66 L170,66 L170,64 L171,64 L171,62 L172,62 L172,61 L173,61 L173,59 L174,59 L174,58 L176,58 L176,57 L177,57 L177,52 L38,52 L38,53 L37,53 L37,54 L34,54 L34,55 L30,55 L30,56 L29,56 L29,57 L25,57 L25,58 L22,58 L22,59 L20,59 L20,60 L17,60 L17,61 L15,61 L15,62 L11,62 L11,63 L10,63 L10,64 L8,64 L8,65 L6,65 L6,66 L5,66 L5,67 L4,67 L4,68 L0,68 L0,69 L-1,69 L-1,70 L-3,70 L-3,71 L-4,71 L-4,72 L-6,72 L-6,73 L-7,73 L-7,74 L-9,74 L-9,75 L-11,75 L-11,77 L-13,77 L-13,78 L-15,78 L-15,79 L-16,79 L-16,80 L-17,80 L-17,81 L-18,81 L-18,82 L-19,82 L-19,83 L-21,83 L-21,84 L-22,84 L-22,85 L-23,85 L-23,86 L-24,86 L-24,87 L-25,87 L-25,88 L-26,88 L-26,90 L-27,90 L-27,91 L-28,91 L-28,92 L-29,92 L-29,93 L-30,93 L-30,94 L-31,94 L-31,95 L-32,95 L-32,96 L-33,96 L-33,97 L-34,97 L-34,99 L-35,99 L-35,100 L-36,100 L-36,101 L-37,101 L-37,103 L-38,103 L-38,104 L-39,104 L-39,106 L-40,106 L-40,107 L-41,107 L-41,111 L-42,111 L-42,113 L-43,113 L-43,114 L-44,114 L-44,116 L-45,116 L-45,118 L-46,118 L-46,120 L-47,120 L-47,121 L-48,121 L-48,123 L-49,123 L-49,126 L-50,126 L-50,129 L-51,129 L-51,133 L-52,133 L-52,136 L-53,136 L-53,141 L-54,141 L-54,148 L-55,148 L-55,152 L-56,152 L-56,248 L-58,248 L-58,249 L-59,249 L-59,250 L-60,250 L-60,251 L-61,251 L-61,253 L-62,253 L-62,254 L-63,254 L-63,255 L-64,255 L-64,257 L-66,257 L-66,259 L-67,259 L-67,260 L-68,260 L-68,261 L-69,261 L-69,262 L-70,262 L-70,265 L-71,265 L-71,266 L-72,266 L-72,268 L-73,268 L-73,269 L-75,269 L-75,270 L-76,270 L-76,271 L-77,271 L-77,272 L-78,272 L-78,274 L-79,274 L-79,275 L-80,275 L-80,276 L-81,276 L-81,277 L-82,277 L-82,281 L-84,281 L-84,283 L-85,283 L-85,284 L-86,284 L-86,285 L-87,285 L-87,287 L-88,287 L-88,288 L-89,288 L-89,289 L-90,289 L-90,293 L-92,293 L-92,295 L-93,295 L-93,296 L-94,296 L-94,297 L-95,297 L-95,298 L-96,298 L-96,299 L-97,299 L-97,301 L-98,301 L-98,303 L-99,303 L-99,304 L-100,304 L-100,305 L-101,305 L-101,311 L-102,311 L-102,314 L-103,314 L-103,315 L-104,315 L-104,319 L-106,319 L-106,317 L-107,317 L-107,316 L-108,316 L-108,312 L-109,312 L-109,107 L-108,107 L-108,101 L-107,101 L-107,98 L-106,98 L-106,93 L-105,93 L-105,86 L-104,86 L-104,83 L-103,83 L-103,82 L-102,82 L-102,79 L-101,79 L-101,76 L-100,76 L-100,74 L-99,74 L-99,71 L-98,71 L-98,69 L-97,69 L-97,67 L-96,67 L-96,65 L-95,65 L-95,64 L-94,64 L-94,62 L-93,62 L-93,60 L-92,60 L-92,59 L-91,59 L-91,58 L-90,58 L-90,55 L-89,55 L-89,54 L-88,54 L-88,53 L-87,53 L-87,52 L-86,52 L-86,50 L-85,50 L-85,49 L-84,49 L-84,47 L-83,47 L-83,46 L-82,46 L-82,45 L-81,45 L-81,43 L-80,43 L-80,42 L-79,42 L-79,41 L-78,41 L-78,40 L-76,40 L-76,38 L-75,38 L-75,37 L-74,37 L-74,36 L-73,36 L-73,35 L-72,35 L-72,34 L-70,34 L-70,33 L-69,33 L-69,32 L-68,32 L-68,31 L-67,31 L-67,30 L-66,30 L-66,29 L-64,29 L-64,28 L-63,28 L-63,27 L-62,27 L-62,26 L-61,26 L-61,25 L-59,25 L-59,24 L-58,24 L-58,23 L-57,23 L-57,22 L-55,22 L-55,21 L-54,21 L-54,20 L-52,20 L-52,19 L-51,19 L-51,18 L-49,18 L-49,17 L-47,17 L-47,16 L-45,16 L-45,15 L-44,15 L-44,14 L-42,14 L-42,13 L-39,13 L-39,12 L-37,12 L-37,11 L-36,11 L-36,10 L-34,10 L-34,9 L-30,9 L-30,8 L-27,8 L-27,7 L-25,7 L-25,6 L-23,6 L-23,5 L-19,5 L-19,4 L-14,4 L-14,3 L-10,3 L-10,2 L-3,2 L-3,1 L0,1 Z " transform="translate(161,63)" style="fill: #1A9A8D;"/><path d="M0,0 L3,0 L3,2 L4,2 L4,3 L5,3 L5,5 L6,5 L6,6 L8,6 L8,7 L9,7 L9,8 L10,8 L10,9 L11,9 L11,10 L12,10 L12,11 L13,11 L13,12 L14,12 L14,13 L15,13 L15,15 L16,15 L16,16 L17,16 L17,17 L19,17 L19,18 L20,18 L20,19 L22,19 L22,20 L23,20 L23,21 L24,21 L24,22 L25,22 L25,23 L26,23 L26,24 L27,24 L27,25 L28,25 L28,26 L29,26 L29,27 L30,27 L30,28 L31,28 L31,29 L32,29 L32,31 L34,31 L34,32 L35,32 L35,33 L36,33 L36,34 L37,34 L37,35 L38,35 L38,36 L40,36 L40,37 L41,37 L41,39 L42,39 L42,40 L44,40 L44,41 L45,41 L45,42 L46,42 L46,43 L47,43 L47,44 L48,44 L48,45 L49,45 L49,46 L50,46 L50,47 L51,47 L51,48 L52,48 L52,49 L53,49 L53,50 L54,50 L54,51 L55,51 L55,53 L59,53 L59,56 L61,56 L61,57 L62,57 L62,60 L60,60 L60,61 L58,61 L58,62 L57,62 L57,63 L55,63 L55,65 L51,65 L51,67 L50,67 L50,68 L49,68 L49,71 L47,71 L47,73 L45,73 L45,75 L44,75 L44,76 L43,76 L43,78 L42,78 L42,79 L41,79 L41,80 L40,80 L40,83 L39,83 L39,84 L38,84 L38,85 L37,85 L37,88 L36,88 L36,89 L35,89 L35,90 L34,90 L34,92 L33,92 L33,94 L32,94 L32,97 L31,97 L31,99 L30,99 L30,102 L29,102 L29,103 L28,103 L28,106 L27,106 L27,109 L26,109 L26,110 L24,110 L24,111 L23,111 L23,114 L22,114 L22,115 L21,115 L21,119 L20,119 L20,120 L19,120 L19,122 L18,122 L18,126 L17,126 L17,127 L16,127 L16,132 L15,132 L15,135 L14,135 L14,142 L13,142 L13,149 L14,149 L14,154 L15,154 L15,158 L7,158 L7,159 L0,159 L0,160 L-1,160 L-1,161 L-5,161 L-5,162 L-7,162 L-7,163 L-9,163 L-9,164 L-11,164 L-11,165 L-13,165 L-13,166 L-14,166 L-14,167 L-15,167 L-15,168 L-16,168 L-16,169 L-18,169 L-18,171 L-19,171 L-19,172 L-20,172 L-20,173 L-21,173 L-21,175 L-22,175 L-22,176 L-23,176 L-23,178 L-24,178 L-24,179 L-25,179 L-25,186 L-26,186 L-26,194 L-25,194 L-25,200 L-38,200 L-38,202 L-58,202 L-58,201 L-94,201 L-94,202 L-110,202 L-110,203 L-122,203 L-122,204 L-123,204 L-123,205 L-133,205 L-133,206 L-140,206 L-140,207 L-146,207 L-146,208 L-149,208 L-149,209 L-151,209 L-151,210 L-152,210 L-152,211 L-153,211 L-153,212 L-155,212 L-155,213 L-156,213 L-156,214 L-157,214 L-157,215 L-159,215 L-159,217 L-161,217 L-161,215 L-160,215 L-160,212 L-159,212 L-159,211 L-158,211 L-158,209 L-157,209 L-157,207 L-156,207 L-156,206 L-155,206 L-155,204 L-154,204 L-154,202 L-153,202 L-153,200 L-152,200 L-152,197 L-151,197 L-151,196 L-150,196 L-150,193 L-149,193 L-149,190 L-148,190 L-148,186 L-147,186 L-147,183 L-146,183 L-146,181 L-145,181 L-145,177 L-144,177 L-144,166 L-143,166 L-143,98 L-142,98 L-142,97 L-141,97 L-141,96 L-140,96 L-140,95 L-139,95 L-139,94 L-138,94 L-138,93 L-137,93 L-137,92 L-136,92 L-136,91 L-135,91 L-135,90 L-134,90 L-134,89 L-133,89 L-133,88 L-132,88 L-132,87 L-131,87 L-131,86 L-130,86 L-130,85 L-129,85 L-129,84 L-128,84 L-128,83 L-127,83 L-127,82 L-126,82 L-126,81 L-125,81 L-125,80 L-124,80 L-124,79 L-123,79 L-123,77 L-122,77 L-122,76 L-121,76 L-121,74 L-120,74 L-120,73 L-119,73 L-119,71 L-118,71 L-118,70 L-117,70 L-117,66 L-118,66 L-118,61 L-119,61 L-119,55 L-120,55 L-120,48 L-100,48 L-100,47 L-93,47 L-93,46 L-90,46 L-90,44 L-86,44 L-86,43 L-82,43 L-82,42 L-78,42 L-78,41 L-75,41 L-75,40 L-72,40 L-72,39 L-68,39 L-68,38 L-66,38 L-66,37 L-64,37 L-64,36 L-57,36 L-57,35 L-54,35 L-54,34 L-52,34 L-52,33 L-49,33 L-49,32 L-48,32 L-48,31 L-45,31 L-45,30 L-42,30 L-42,29 L-40,29 L-40,27 L-38,27 L-38,26 L-37,26 L-37,25 L-34,25 L-34,24 L-33,24 L-33,23 L-31,23 L-31,22 L-29,22 L-29,21 L-27,21 L-27,20 L-26,20 L-26,19 L-24,19 L-24,18 L-22,18 L-22,17 L-21,17 L-21,16 L-19,16 L-19,15 L-18,15 L-18,14 L-17,14 L-17,13 L-14,13 L-14,11 L-12,11 L-12,10 L-11,10 L-11,9 L-9,9 L-9,7 L-7,7 L-7,6 L-6,6 L-6,5 L-4,5 L-4,4 L-3,4 L-3,3 L-2,3 L-2,2 L-1,2 L-1,1 L0,1 Z " transform="translate(300,162)" style="fill: #0BA48E;"/><path d="M0,0 L45,0 L45,1 L46,1 L46,2 L63,2 L63,3 L68,3 L68,4 L73,4 L73,5 L75,5 L75,6 L79,6 L79,7 L83,7 L83,8 L87,8 L87,9 L88,9 L88,10 L91,10 L91,11 L93,11 L93,12 L96,12 L96,13 L97,13 L97,14 L99,14 L99,15 L101,15 L101,16 L103,16 L103,17 L104,17 L104,18 L106,18 L106,19 L108,19 L108,20 L109,20 L109,21 L110,21 L110,22 L111,22 L111,23 L113,23 L113,24 L114,24 L114,25 L115,25 L115,26 L116,26 L116,27 L117,27 L117,28 L119,28 L119,30 L120,30 L120,31 L121,31 L121,32 L122,32 L122,33 L123,33 L123,34 L124,34 L124,35 L125,35 L125,37 L126,37 L126,38 L127,38 L127,39 L128,39 L128,40 L129,40 L129,41 L130,41 L130,43 L131,43 L131,44 L132,44 L132,46 L133,46 L133,48 L134,48 L134,50 L135,50 L135,51 L136,51 L136,54 L137,54 L137,55 L138,55 L138,58 L139,58 L139,61 L140,61 L140,65 L141,65 L141,71 L142,71 L142,78 L143,78 L143,93 L144,93 L144,99 L143,99 L143,112 L142,112 L142,117 L141,117 L141,122 L140,122 L140,126 L139,126 L139,130 L138,130 L138,133 L137,133 L137,135 L136,135 L136,139 L135,139 L135,142 L134,142 L134,148 L133,148 L133,164 L134,164 L134,217 L133,217 L133,254 L134,254 L134,323 L133,323 L133,335 L132,335 L132,343 L131,343 L131,347 L130,347 L130,352 L129,352 L129,354 L128,354 L128,356 L127,356 L127,359 L126,359 L126,363 L125,363 L125,365 L124,365 L124,368 L123,368 L123,370 L122,370 L122,373 L121,373 L121,375 L120,375 L120,377 L119,377 L119,379 L118,379 L118,380 L117,380 L117,382 L116,382 L116,384 L115,384 L115,385 L114,385 L114,387 L113,387 L113,388 L112,388 L112,390 L111,390 L111,391 L110,391 L110,392 L109,392 L109,394 L108,394 L108,395 L107,395 L107,396 L106,396 L106,397 L105,397 L105,399 L104,399 L104,400 L103,400 L103,401 L102,401 L102,402 L101,402 L101,403 L100,403 L100,404 L99,404 L99,405 L98,405 L98,406 L97,406 L97,407 L96,407 L96,408 L95,408 L95,409 L94,409 L94,410 L93,410 L93,411 L92,411 L92,412 L90,412 L90,414 L89,414 L89,415 L88,415 L88,416 L86,416 L86,417 L85,417 L85,418 L84,418 L84,419 L83,419 L83,420 L81,420 L81,421 L80,421 L80,422 L79,422 L79,423 L76,423 L76,424 L74,424 L74,425 L73,425 L73,426 L72,426 L72,427 L70,427 L70,428 L67,428 L67,429 L66,429 L66,430 L64,430 L64,431 L62,431 L62,432 L60,432 L60,433 L58,433 L58,434 L57,434 L57,435 L54,435 L54,436 L50,436 L50,437 L49,437 L49,438 L46,438 L46,439 L42,439 L42,440 L35,440 L35,439 L39,439 L39,438 L40,438 L40,437 L45,437 L45,436 L48,436 L48,435 L51,435 L51,434 L52,434 L52,433 L55,433 L55,432 L57,432 L57,431 L59,431 L59,430 L61,430 L61,429 L62,429 L62,428 L64,428 L64,427 L66,427 L66,426 L67,426 L67,425 L70,425 L70,424 L72,424 L72,423 L74,423 L74,422 L75,422 L75,421 L77,421 L77,420 L79,420 L79,419 L80,419 L80,418 L82,418 L82,417 L83,417 L83,416 L84,416 L84,415 L85,415 L85,414 L86,414 L86,413 L87,413 L87,412 L88,412 L88,411 L90,411 L90,410 L91,410 L91,409 L92,409 L92,408 L93,408 L93,407 L94,407 L94,406 L95,406 L95,405 L96,405 L96,404 L97,404 L97,403 L98,403 L98,402 L99,402 L99,401 L100,401 L100,400 L101,400 L101,399 L102,399 L102,397 L103,397 L103,396 L104,396 L104,395 L105,395 L105,393 L106,393 L106,392 L107,392 L107,391 L108,391 L108,390 L109,390 L109,388 L110,388 L110,387 L111,387 L111,385 L112,385 L112,384 L113,384 L113,382 L114,382 L114,380 L115,380 L115,379 L116,379 L116,377 L117,377 L117,375 L118,375 L118,373 L119,373 L119,371 L120,371 L120,368 L121,368 L121,366 L122,366 L122,363 L123,363 L123,361 L124,361 L124,357 L125,357 L125,355 L126,355 L126,354 L127,354 L127,350 L128,350 L128,346 L129,346 L129,341 L130,341 L130,333 L131,333 L131,327 L132,327 L132,164 L129,164 L129,166 L128,166 L128,167 L127,167 L127,170 L125,170 L125,171 L124,171 L124,173 L123,173 L123,174 L122,174 L122,176 L121,176 L121,177 L120,177 L120,178 L119,178 L119,180 L118,180 L118,181 L117,181 L117,182 L116,182 L116,183 L115,183 L115,184 L114,184 L114,185 L113,185 L113,186 L112,186 L112,188 L111,188 L111,189 L110,189 L110,190 L109,190 L109,192 L108,192 L108,193 L107,193 L107,195 L105,195 L105,197 L104,197 L104,198 L103,198 L103,199 L102,199 L102,201 L101,201 L101,202 L100,202 L100,203 L98,203 L98,205 L96,205 L96,207 L94,207 L94,208 L93,208 L93,209 L92,209 L92,210 L91,210 L91,212 L89,212 L89,213 L88,213 L88,215 L86,215 L86,217 L85,217 L85,218 L84,218 L84,189 L85,189 L85,185 L86,185 L86,184 L87,184 L87,183 L88,183 L88,182 L89,182 L89,181 L90,181 L90,179 L91,179 L91,178 L92,178 L92,177 L93,177 L93,176 L94,176 L94,175 L95,175 L95,173 L96,173 L96,172 L97,172 L97,171 L98,171 L98,170 L99,170 L99,168 L100,168 L100,167 L101,167 L101,166 L102,166 L102,165 L103,165 L103,163 L104,163 L104,162 L105,162 L105,161 L106,161 L106,160 L107,160 L107,158 L108,158 L108,157 L109,157 L109,156 L110,156 L110,155 L111,155 L111,154 L112,154 L112,152 L113,152 L113,151 L114,151 L114,150 L116,150 L116,148 L117,148 L117,147 L118,147 L118,146 L119,146 L119,144 L120,144 L120,143 L121,143 L121,142 L122,142 L122,141 L123,141 L123,134 L122,134 L122,130 L121,130 L121,127 L120,127 L120,124 L119,124 L119,120 L118,120 L118,119 L117,119 L117,117 L116,117 L116,116 L115,116 L115,112 L114,112 L114,111 L113,111 L113,110 L112,110 L112,107 L111,107 L111,106 L110,106 L110,104 L109,104 L109,103 L108,103 L108,101 L107,101 L107,100 L106,100 L106,99 L105,99 L105,97 L104,97 L104,96 L103,96 L103,95 L102,95 L102,94 L101,94 L101,92 L99,92 L99,91 L98,91 L98,89 L97,89 L97,88 L96,88 L96,87 L95,87 L95,86 L94,86 L94,85 L93,85 L93,84 L91,84 L91,83 L90,83 L90,82 L89,82 L89,81 L88,81 L88,80 L86,80 L86,78 L84,78 L84,77 L83,77 L83,76 L82,76 L82,75 L81,75 L81,74 L79,74 L79,73 L78,73 L78,72 L77,72 L77,71 L75,71 L75,70 L74,70 L74,69 L72,69 L72,68 L71,68 L71,67 L68,67 L68,66 L66,66 L66,64 L65,64 L65,63 L62,63 L62,62 L60,62 L60,61 L56,61 L56,60 L53,60 L53,59 L50,59 L50,58 L48,58 L48,57 L46,57 L46,56 L43,56 L43,55 L37,55 L37,54 L33,54 L33,53 L28,53 L28,52 L24,52 L24,51 L22,51 L22,50 L16,50 L16,49 L-155,49 L-155,50 L-158,50 L-158,51 L-165,51 L-165,52 L-169,52 L-169,53 L-174,53 L-174,54 L-178,54 L-178,55 L-180,55 L-180,56 L-182,56 L-182,57 L-185,57 L-185,58 L-189,58 L-189,59 L-191,59 L-191,60 L-192,60 L-192,61 L-194,61 L-194,62 L-197,62 L-197,63 L-199,63 L-199,64 L-200,64 L-200,65 L-202,65 L-202,66 L-204,66 L-204,67 L-206,67 L-206,68 L-207,68 L-207,69 L-209,69 L-209,70 L-210,70 L-210,71 L-212,71 L-212,72 L-213,72 L-213,73 L-214,73 L-214,74 L-216,74 L-216,75 L-217,75 L-217,76 L-218,76 L-218,77 L-219,77 L-219,78 L-221,78 L-221,79 L-222,79 L-222,80 L-223,80 L-223,81 L-224,81 L-224,82 L-225,82 L-225,83 L-227,83 L-227,84 L-228,84 L-228,85 L-229,85 L-229,86 L-230,86 L-230,87 L-231,87 L-231,89 L-233,89 L-233,90 L-234,90 L-234,91 L-235,91 L-235,92 L-236,92 L-236,94 L-237,94 L-237,95 L-238,95 L-238,96 L-239,96 L-239,98 L-240,98 L-240,99 L-241,99 L-241,101 L-242,101 L-242,102 L-243,102 L-243,103 L-244,103 L-244,104 L-245,104 L-245,107 L-246,107 L-246,108 L-247,108 L-247,109 L-248,109 L-248,111 L-249,111 L-249,113 L-250,113 L-250,114 L-251,114 L-251,116 L-252,116 L-252,118 L-253,118 L-253,120 L-254,120 L-254,123 L-255,123 L-255,125 L-256,125 L-256,128 L-257,128 L-257,131 L-258,131 L-258,132 L-259,132 L-259,135 L-260,135 L-260,142 L-261,142 L-261,147 L-262,147 L-262,150 L-263,150 L-263,156 L-264,156 L-264,361 L-263,361 L-263,365 L-262,365 L-262,366 L-261,366 L-261,368 L-259,368 L-259,364 L-258,364 L-258,363 L-257,363 L-257,360 L-256,360 L-256,354 L-255,354 L-255,353 L-254,353 L-254,352 L-253,352 L-253,350 L-252,350 L-252,348 L-251,348 L-251,347 L-250,347 L-250,346 L-249,346 L-249,345 L-248,345 L-248,344 L-247,344 L-247,342 L-246,342 L-246,346 L-247,346 L-247,350 L-248,350 L-248,351 L-249,351 L-249,353 L-250,353 L-250,357 L-251,357 L-251,363 L-252,363 L-252,373 L-253,373 L-253,405 L-252,405 L-252,411 L-251,411 L-251,414 L-250,414 L-250,416 L-249,416 L-249,417 L-248,417 L-248,421 L-247,421 L-247,425 L-246,425 L-246,427 L-244,427 L-244,428 L-243,428 L-243,431 L-242,431 L-242,432 L-241,432 L-241,434 L-240,434 L-240,435 L-239,435 L-239,437 L-238,437 L-238,438 L-237,438 L-237,439 L-236,439 L-236,441 L-235,441 L-235,442 L-234,442 L-234,443 L-233,443 L-233,444 L-232,444 L-232,445 L-231,445 L-231,446 L-230,446 L-230,447 L-229,447 L-229,448 L-228,448 L-228,449 L-226,449 L-226,450 L-225,450 L-225,451 L-223,451 L-223,452 L-222,452 L-222,453 L-220,453 L-220,454 L-218,454 L-218,455 L-217,455 L-217,456 L-213,456 L-213,457 L-211,457 L-211,459 L-209,459 L-209,460 L-206,460 L-206,461 L-202,461 L-202,462 L-198,462 L-198,463 L-195,463 L-195,464 L-191,464 L-191,465 L-184,465 L-184,466 L-174,466 L-174,467 L-159,467 L-159,466 L-145,466 L-145,465 L-139,465 L-139,464 L-132,464 L-132,463 L-126,463 L-126,462 L-122,462 L-122,461 L-118,461 L-118,460 L-115,460 L-115,459 L-111,459 L-111,458 L-109,458 L-109,457 L-105,457 L-105,456 L-101,456 L-101,455 L-98,455 L-98,454 L-94,454 L-94,453 L-91,453 L-91,452 L-89,452 L-89,451 L-86,451 L-86,450 L-80,450 L-80,449 L-34,449 L-34,448 L17,448 L17,449 L16,449 L16,450 L14,450 L14,451 L10,451 L10,452 L6,452 L6,453 L5,453 L5,454 L1,454 L1,455 L4,455 L4,457 L2,457 L2,458 L-2,458 L-2,459 L-5,459 L-5,460 L-9,460 L-9,461 L-12,461 L-12,462 L-15,462 L-15,463 L-18,463 L-18,464 L-22,464 L-22,465 L-24,465 L-24,466 L-27,466 L-27,467 L-31,467 L-31,468 L-34,468 L-34,469 L-38,469 L-38,470 L-40,470 L-40,471 L-43,471 L-43,472 L-47,472 L-47,473 L-50,473 L-50,474 L-52,474 L-52,475 L-55,475 L-55,476 L-59,476 L-59,477 L-63,477 L-63,478 L-65,478 L-65,479 L-69,479 L-69,480 L-73,480 L-73,481 L-79,481 L-79,482 L-80,482 L-80,483 L-85,483 L-85,484 L-91,484 L-91,485 L-96,485 L-96,486 L-97,486 L-97,487 L-104,487 L-104,488 L-109,488 L-109,489 L-118,489 L-118,490 L-119,490 L-119,491 L-125,491 L-125,492 L-137,492 L-137,493 L-148,493 L-148,494 L-150,494 L-150,495 L-172,495 L-172,494 L-174,494 L-174,493 L-187,493 L-187,492 L-195,492 L-195,491 L-201,491 L-201,490 L-202,490 L-202,489 L-207,489 L-207,488 L-211,488 L-211,487 L-214,487 L-214,486 L-215,486 L-215,485 L-218,485 L-218,484 L-222,484 L-222,483 L-224,483 L-224,482 L-225,482 L-225,481 L-227,481 L-227,480 L-229,480 L-229,479 L-231,479 L-231,478 L-232,478 L-232,477 L-234,477 L-234,476 L-236,476 L-236,475 L-237,475 L-237,474 L-238,474 L-238,473 L-239,473 L-239,472 L-240,472 L-240,471 L-242,471 L-242,470 L-243,470 L-243,469 L-244,469 L-244,468 L-245,468 L-245,467 L-246,467 L-246,465 L-247,465 L-247,464 L-248,464 L-248,463 L-249,463 L-249,462 L-250,462 L-250,461 L-251,461 L-251,460 L-252,460 L-252,459 L-253,459 L-253,457 L-254,457 L-254,456 L-255,456 L-255,454 L-256,454 L-256,453 L-257,453 L-257,451 L-258,451 L-258,450 L-259,450 L-259,447 L-260,447 L-260,445 L-261,445 L-261,442 L-262,442 L-262,440 L-263,440 L-263,436 L-264,436 L-264,434 L-265,434 L-265,429 L-266,429 L-266,422 L-267,422 L-267,393 L-266,393 L-266,386 L-265,386 L-265,379 L-264,379 L-264,377 L-263,377 L-263,367 L-264,367 L-264,366 L-265,366 L-265,362 L-266,362 L-266,229 L-267,229 L-267,211 L-266,211 L-266,154 L-265,154 L-265,148 L-264,148 L-264,145 L-263,145 L-263,138 L-262,138 L-262,134 L-261,134 L-261,131 L-260,131 L-260,128 L-259,128 L-259,126 L-258,126 L-258,124 L-257,124 L-257,122 L-256,122 L-256,120 L-255,120 L-255,117 L-254,117 L-254,115 L-253,115 L-253,113 L-252,113 L-252,111 L-251,111 L-251,109 L-250,109 L-250,108 L-249,108 L-249,106 L-248,106 L-248,104 L-247,104 L-247,103 L-246,103 L-246,101 L-245,101 L-245,100 L-244,100 L-244,99 L-243,99 L-243,97 L-242,97 L-242,96 L-241,96 L-241,95 L-240,95 L-240,93 L-239,93 L-239,92 L-238,92 L-238,91 L-237,91 L-237,90 L-236,90 L-236,89 L-235,89 L-235,88 L-234,88 L-234,87 L-233,87 L-233,85 L-232,85 L-232,84 L-230,84 L-230,83 L-229,83 L-229,82 L-228,82 L-228,81 L-227,81 L-227,80 L-226,80 L-226,79 L-225,79 L-225,78 L-224,78 L-224,77 L-223,77 L-223,76 L-222,76 L-222,75 L-220,75 L-220,74 L-219,74 L-219,73 L-218,73 L-218,72 L-216,72 L-216,71 L-215,71 L-215,70 L-214,70 L-214,69 L-212,69 L-212,68 L-211,68 L-211,67 L-208,67 L-208,65 L-206,65 L-206,64 L-204,64 L-204,63 L-202,63 L-202,62 L-201,62 L-201,61 L-199,61 L-199,60 L-196,60 L-196,59 L-194,59 L-194,58 L-193,58 L-193,57 L-191,57 L-191,56 L-188,56 L-188,55 L-184,55 L-184,54 L-183,54 L-183,53 L-180,53 L-180,52 L-176,52 L-176,51 L-172,51 L-172,50 L-170,50 L-170,49 L-163,49 L-163,48 L-158,48 L-158,47 L-150,47 L-150,46 L-148,46 L-148,45 L-144,45 L-144,44 L-142,44 L-142,43 L-139,43 L-139,42 L-138,42 L-138,41 L-137,41 L-137,40 L-135,40 L-135,39 L-131,39 L-131,38 L-129,38 L-129,37 L-128,37 L-128,36 L-126,36 L-126,35 L-124,35 L-124,34 L-122,34 L-122,33 L-121,33 L-121,32 L-117,32 L-117,31 L-115,31 L-115,30 L-113,30 L-113,29 L-111,29 L-111,28 L-108,28 L-108,27 L-105,27 L-105,26 L-102,26 L-102,25 L-101,25 L-101,24 L-97,24 L-97,23 L-93,23 L-93,22 L-90,22 L-90,21 L-89,21 L-89,20 L-85,20 L-85,19 L-82,19 L-82,18 L-77,18 L-77,17 L-76,17 L-76,16 L-73,16 L-73,15 L-69,15 L-69,14 L-65,14 L-65,13 L-64,13 L-64,12 L-60,12 L-60,11 L-55,11 L-55,10 L-50,10 L-50,9 L-49,9 L-49,8 L-44,8 L-44,7 L-38,7 L-38,6 L-33,6 L-33,5 L-31,5 L-31,4 L-24,4 L-24,3 L-17,3 L-17,2 L-1,2 L-1,1 L0,1 Z " transform="translate(316,14)" style="fill: #F1FAF4;"/><path d="M0,0 L32,0 L32,2 L30,2 L30,3 L29,3 L29,4 L25,4 L25,5 L22,5 L22,6 L20,6 L20,7 L17,7 L17,8 L15,8 L15,9 L11,9 L11,10 L10,10 L10,11 L8,11 L8,12 L6,12 L6,13 L5,13 L5,14 L4,14 L4,15 L0,15 L0,16 L-1,16 L-1,17 L-3,17 L-3,18 L-4,18 L-4,19 L-6,19 L-6,20 L-7,20 L-7,21 L-9,21 L-9,22 L-11,22 L-11,24 L-13,24 L-13,25 L-15,25 L-15,26 L-16,26 L-16,27 L-17,27 L-17,28 L-18,28 L-18,29 L-19,29 L-19,30 L-21,30 L-21,31 L-22,31 L-22,32 L-23,32 L-23,33 L-24,33 L-24,34 L-25,34 L-25,35 L-26,35 L-26,37 L-27,37 L-27,38 L-28,38 L-28,39 L-29,39 L-29,40 L-30,40 L-30,41 L-31,41 L-31,42 L-32,42 L-32,43 L-33,43 L-33,44 L-34,44 L-34,46 L-35,46 L-35,47 L-36,47 L-36,48 L-37,48 L-37,50 L-38,50 L-38,51 L-39,51 L-39,53 L-40,53 L-40,54 L-41,54 L-41,58 L-42,58 L-42,60 L-43,60 L-43,61 L-44,61 L-44,63 L-45,63 L-45,65 L-46,65 L-46,67 L-47,67 L-47,68 L-48,68 L-48,70 L-49,70 L-49,73 L-50,73 L-50,76 L-51,76 L-51,80 L-52,80 L-52,83 L-53,83 L-53,88 L-54,88 L-54,95 L-55,95 L-55,99 L-56,99 L-56,195 L-58,195 L-58,196 L-59,196 L-59,197 L-60,197 L-60,198 L-61,198 L-61,200 L-62,200 L-62,201 L-63,201 L-63,202 L-64,202 L-64,204 L-66,204 L-66,206 L-67,206 L-67,207 L-68,207 L-68,208 L-69,208 L-69,209 L-70,209 L-70,212 L-71,212 L-71,213 L-72,213 L-72,215 L-73,215 L-73,216 L-75,216 L-75,217 L-76,217 L-76,218 L-77,218 L-77,219 L-78,219 L-78,221 L-79,221 L-79,222 L-80,222 L-80,223 L-81,223 L-81,224 L-82,224 L-82,228 L-84,228 L-84,230 L-85,230 L-85,231 L-86,231 L-86,232 L-87,232 L-87,234 L-88,234 L-88,235 L-89,235 L-89,236 L-90,236 L-90,240 L-92,240 L-92,242 L-93,242 L-93,243 L-94,243 L-94,244 L-95,244 L-95,245 L-96,245 L-96,246 L-97,246 L-97,248 L-98,248 L-98,250 L-99,250 L-99,251 L-100,251 L-100,252 L-101,252 L-101,258 L-102,258 L-102,261 L-103,261 L-103,262 L-104,262 L-104,266 L-106,266 L-106,264 L-107,264 L-107,263 L-108,263 L-108,259 L-109,259 L-109,138 L-108,138 L-108,130 L-107,130 L-107,125 L-106,125 L-106,121 L-105,121 L-105,115 L-104,115 L-104,111 L-103,111 L-103,104 L-102,104 L-102,103 L-101,103 L-101,99 L-100,99 L-100,96 L-99,96 L-99,93 L-98,93 L-98,90 L-97,90 L-97,88 L-96,88 L-96,86 L-95,86 L-95,82 L-93,82 L-93,79 L-92,79 L-92,75 L-91,75 L-91,72 L-90,72 L-90,71 L-89,71 L-89,69 L-88,69 L-88,67 L-87,67 L-87,66 L-86,66 L-86,65 L-85,65 L-85,64 L-84,64 L-84,60 L-83,60 L-83,59 L-82,59 L-82,57 L-81,57 L-81,56 L-80,56 L-80,54 L-79,54 L-79,53 L-77,53 L-77,50 L-76,50 L-76,49 L-75,49 L-75,48 L-74,48 L-74,47 L-73,47 L-73,46 L-72,46 L-72,45 L-71,45 L-71,43 L-70,43 L-70,42 L-69,42 L-69,41 L-68,41 L-68,40 L-67,40 L-67,39 L-66,39 L-66,38 L-65,38 L-65,37 L-64,37 L-64,36 L-63,36 L-63,35 L-62,35 L-62,34 L-61,34 L-61,33 L-60,33 L-60,32 L-59,32 L-59,31 L-58,31 L-58,30 L-57,30 L-57,29 L-56,29 L-56,28 L-55,28 L-55,27 L-53,27 L-53,26 L-52,26 L-52,25 L-51,25 L-51,24 L-50,24 L-50,23 L-48,23 L-48,22 L-46,22 L-46,21 L-45,21 L-45,20 L-44,20 L-44,19 L-43,19 L-43,18 L-42,18 L-42,17 L-40,17 L-40,16 L-38,16 L-38,15 L-37,15 L-37,14 L-35,14 L-35,13 L-33,13 L-33,12 L-32,12 L-32,11 L-30,11 L-30,10 L-28,10 L-28,9 L-27,9 L-27,8 L-24,8 L-24,7 L-21,7 L-21,6 L-18,6 L-18,5 L-16,5 L-16,4 L-13,4 L-13,3 L-11,3 L-11,2 L-8,2 L-8,1 L0,1 Z " transform="translate(161,116)" style="fill: #3F4C46;"/><path d="M0,0 L2,0 L2,14 L3,14 L3,20 L4,20 L4,24 L5,24 L5,28 L6,28 L6,31 L7,31 L7,34 L8,34 L8,36 L9,36 L9,39 L10,39 L10,41 L11,41 L11,42 L12,42 L12,44 L13,44 L13,46 L14,46 L14,48 L15,48 L15,50 L16,50 L16,52 L17,52 L17,53 L18,53 L18,55 L19,55 L19,56 L20,56 L20,57 L21,57 L21,59 L22,59 L22,60 L23,60 L23,61 L24,61 L24,62 L25,62 L25,63 L26,63 L26,64 L27,64 L27,65 L28,65 L28,66 L29,66 L29,67 L30,67 L30,68 L31,68 L31,69 L34,69 L34,70 L35,70 L35,71 L37,71 L37,72 L38,72 L38,73 L40,73 L40,74 L44,74 L44,75 L47,75 L47,76 L48,76 L48,77 L50,77 L50,78 L57,78 L57,79 L188,79 L188,80 L183,80 L183,81 L179,81 L179,82 L172,82 L172,83 L169,83 L169,84 L168,84 L168,85 L166,85 L166,86 L164,86 L164,87 L162,87 L162,88 L158,88 L158,89 L155,89 L155,90 L152,90 L152,91 L150,91 L150,92 L149,92 L149,93 L146,93 L146,94 L139,94 L139,95 L137,95 L137,96 L134,96 L134,97 L131,97 L131,98 L126,98 L126,99 L125,99 L125,100 L120,100 L120,101 L118,101 L118,102 L114,102 L114,103 L110,103 L110,104 L106,104 L106,106 L103,106 L103,107 L96,107 L96,108 L92,108 L92,109 L89,109 L89,110 L86,110 L86,111 L83,111 L83,112 L76,112 L76,113 L71,113 L71,114 L67,114 L67,115 L65,115 L65,116 L58,116 L58,117 L53,117 L53,118 L49,118 L49,119 L47,119 L47,120 L43,120 L43,121 L27,121 L27,122 L24,122 L24,124 L22,124 L22,125 L25,125 L25,126 L21,126 L21,125 L20,125 L20,124 L17,124 L17,121 L16,121 L16,120 L13,120 L13,119 L11,119 L11,118 L9,118 L9,117 L7,117 L7,116 L5,116 L5,115 L4,115 L4,114 L2,114 L2,113 L1,113 L1,112 L-1,112 L-1,111 L-2,111 L-2,110 L-3,110 L-3,109 L-4,109 L-4,108 L-5,108 L-5,107 L-7,107 L-7,106 L-8,106 L-8,105 L-9,105 L-9,104 L-11,104 L-11,103 L-12,103 L-12,101 L-13,101 L-13,100 L-14,100 L-14,99 L-15,99 L-15,98 L-16,98 L-16,97 L-17,97 L-17,95 L-18,95 L-18,94 L-19,94 L-19,93 L-20,93 L-20,92 L-21,92 L-21,91 L-22,91 L-22,88 L-23,88 L-23,87 L-24,87 L-24,84 L-25,84 L-25,81 L-26,81 L-26,78 L-27,78 L-27,73 L-28,73 L-28,56 L-27,56 L-27,54 L-26,54 L-26,50 L-25,50 L-25,47 L-24,47 L-24,42 L-23,42 L-23,41 L-21,41 L-21,38 L-20,38 L-20,34 L-19,34 L-19,32 L-18,32 L-18,31 L-17,31 L-17,28 L-16,28 L-16,24 L-15,24 L-15,22 L-13,22 L-13,21 L-12,21 L-12,17 L-11,17 L-11,16 L-10,16 L-10,14 L-8,14 L-8,11 L-7,11 L-7,10 L-6,10 L-6,8 L-5,8 L-5,7 L-4,7 L-4,5 L-3,5 L-3,3 L-2,3 L-2,2 L-1,2 L-1,1 L0,1 Z " transform="translate(104,324)" style="fill: #08BFBF;"/><path d="M0,0 L1,0 L1,4 L0,4 L0,8 L-1,8 L-1,9 L-2,9 L-2,11 L-3,11 L-3,15 L-4,15 L-4,21 L-5,21 L-5,31 L-6,31 L-6,63 L-5,63 L-5,69 L-4,69 L-4,72 L-3,72 L-3,74 L-2,74 L-2,75 L-1,75 L-1,79 L0,79 L0,83 L1,83 L1,85 L3,85 L3,86 L4,86 L4,89 L5,89 L5,90 L6,90 L6,92 L7,92 L7,93 L8,93 L8,95 L9,95 L9,96 L10,96 L10,97 L11,97 L11,99 L12,99 L12,100 L13,100 L13,101 L14,101 L14,102 L15,102 L15,103 L16,103 L16,104 L17,104 L17,105 L18,105 L18,106 L19,106 L19,107 L21,107 L21,108 L22,108 L22,109 L24,109 L24,110 L25,110 L25,111 L27,111 L27,112 L29,112 L29,113 L30,113 L30,114 L34,114 L34,115 L36,115 L36,117 L38,117 L38,118 L41,118 L41,119 L45,119 L45,120 L49,120 L49,121 L52,121 L52,122 L56,122 L56,123 L63,123 L63,124 L73,124 L73,125 L88,125 L88,124 L102,124 L102,123 L108,123 L108,122 L115,122 L115,121 L121,121 L121,120 L125,120 L125,119 L129,119 L129,118 L132,118 L132,117 L136,117 L136,116 L138,116 L138,115 L142,115 L142,114 L146,114 L146,113 L149,113 L149,112 L153,112 L153,111 L156,111 L156,110 L158,110 L158,109 L161,109 L161,108 L167,108 L167,107 L213,107 L213,106 L264,106 L264,107 L263,107 L263,108 L261,108 L261,109 L257,109 L257,110 L253,110 L253,111 L252,111 L252,112 L248,112 L248,113 L243,113 L243,114 L242,114 L242,115 L239,115 L239,116 L237,116 L237,117 L235,117 L235,118 L231,118 L231,119 L227,119 L227,120 L223,120 L223,121 L222,121 L222,122 L218,122 L218,123 L214,123 L214,124 L211,124 L211,125 L207,125 L207,126 L204,126 L204,127 L202,127 L202,128 L200,128 L200,129 L196,129 L196,130 L193,130 L193,131 L190,131 L190,132 L186,132 L186,133 L184,133 L184,134 L180,134 L180,135 L176,135 L176,136 L172,136 L172,137 L167,137 L167,138 L164,138 L164,139 L160,139 L160,140 L154,140 L154,141 L150,141 L150,142 L145,142 L145,143 L141,143 L141,144 L134,144 L134,145 L131,145 L131,146 L123,146 L123,147 L119,147 L119,148 L109,148 L109,149 L106,149 L106,150 L65,150 L65,149 L61,149 L61,148 L54,148 L54,147 L49,147 L49,146 L48,146 L48,145 L43,145 L43,144 L38,144 L38,143 L35,143 L35,142 L34,142 L34,141 L30,141 L30,140 L28,140 L28,139 L26,139 L26,138 L23,138 L23,137 L22,137 L22,136 L20,136 L20,135 L18,135 L18,134 L17,134 L17,133 L15,133 L15,132 L14,132 L14,131 L13,131 L13,130 L11,130 L11,129 L10,129 L10,128 L9,128 L9,127 L8,127 L8,126 L7,126 L7,125 L6,125 L6,124 L5,124 L5,123 L3,123 L3,122 L2,122 L2,120 L1,120 L1,119 L0,119 L0,118 L-1,118 L-1,117 L-2,117 L-2,115 L-3,115 L-3,114 L-4,114 L-4,113 L-5,113 L-5,111 L-6,111 L-6,110 L-7,110 L-7,109 L-8,109 L-8,107 L-9,107 L-9,106 L-10,106 L-10,102 L-12,102 L-12,99 L-13,99 L-13,96 L-14,96 L-14,94 L-15,94 L-15,89 L-16,89 L-16,84 L-17,84 L-17,48 L-16,48 L-16,40 L-15,40 L-15,36 L-14,36 L-14,32 L-13,32 L-13,27 L-14,27 L-14,26 L-12,26 L-12,22 L-11,22 L-11,21 L-10,21 L-10,18 L-9,18 L-9,12 L-8,12 L-8,11 L-7,11 L-7,10 L-6,10 L-6,8 L-5,8 L-5,6 L-4,6 L-4,5 L-3,5 L-3,4 L-2,4 L-2,3 L-1,3 L-1,2 L0,2 Z " transform="translate(69,356)" style="fill: #60FE4B;"/><path d="M0,0 L34,0 L34,1 L37,1 L37,2 L48,2 L48,3 L59,3 L59,4 L61,4 L61,5 L65,5 L65,6 L69,6 L69,7 L73,7 L73,8 L76,8 L76,9 L77,9 L77,10 L81,10 L81,11 L83,11 L83,12 L85,12 L85,13 L87,13 L87,14 L89,14 L89,15 L91,15 L91,16 L93,16 L93,17 L95,17 L95,18 L96,18 L96,19 L98,19 L98,20 L100,20 L100,21 L101,21 L101,22 L102,22 L102,23 L103,23 L103,24 L105,24 L105,25 L106,25 L106,26 L107,26 L107,27 L108,27 L108,28 L109,28 L109,29 L111,29 L111,30 L112,30 L112,31 L113,31 L113,32 L114,32 L114,34 L115,34 L115,35 L116,35 L116,36 L117,36 L117,37 L118,37 L118,38 L119,38 L119,39 L120,39 L120,41 L121,41 L121,42 L122,42 L122,44 L123,44 L123,45 L124,45 L124,47 L125,47 L125,48 L126,48 L126,50 L127,50 L127,52 L128,52 L128,54 L129,54 L129,57 L130,57 L130,61 L131,61 L131,65 L132,65 L132,74 L133,74 L133,79 L134,79 L134,109 L133,109 L133,113 L132,113 L132,117 L131,117 L131,121 L130,121 L130,127 L129,127 L129,129 L128,129 L128,131 L127,131 L127,134 L126,134 L126,137 L125,137 L125,139 L124,139 L124,142 L121,142 L121,137 L122,137 L122,134 L123,134 L123,131 L124,131 L124,128 L125,128 L125,105 L124,105 L124,101 L123,101 L123,96 L122,96 L122,94 L121,94 L121,89 L120,89 L120,86 L119,86 L119,84 L118,84 L118,81 L117,81 L117,77 L116,77 L116,76 L115,76 L115,74 L114,74 L114,69 L113,69 L113,68 L112,68 L112,66 L111,66 L111,64 L110,64 L110,63 L109,63 L109,62 L108,62 L108,61 L107,61 L107,60 L106,60 L106,57 L105,57 L105,56 L104,56 L104,55 L103,55 L103,54 L102,54 L102,53 L101,53 L101,52 L100,52 L100,51 L99,51 L99,50 L98,50 L98,49 L97,49 L97,48 L95,48 L95,47 L94,47 L94,46 L93,46 L93,45 L92,45 L92,44 L90,44 L90,43 L89,43 L89,42 L87,42 L87,41 L86,41 L86,40 L85,40 L85,39 L83,39 L83,38 L81,38 L81,37 L79,37 L79,36 L76,36 L76,35 L75,35 L75,34 L73,34 L73,33 L69,33 L69,32 L67,32 L67,31 L63,31 L63,30 L59,30 L59,29 L55,29 L55,28 L51,28 L51,27 L46,27 L46,26 L19,26 L19,27 L12,27 L12,28 L5,28 L5,29 L-3,29 L-3,30 L-7,30 L-7,31 L-11,31 L-11,32 L-17,32 L-17,33 L-20,33 L-20,34 L-27,34 L-27,35 L-31,35 L-31,36 L-34,36 L-34,37 L-35,37 L-35,38 L-133,38 L-133,37 L-132,37 L-132,36 L-130,36 L-130,35 L-129,35 L-129,34 L-125,34 L-125,33 L-123,33 L-123,32 L-122,32 L-122,31 L-120,31 L-120,30 L-116,30 L-116,28 L-113,28 L-113,27 L-108,27 L-108,26 L-106,26 L-106,25 L-105,25 L-105,24 L-102,24 L-102,23 L-99,23 L-99,22 L-94,22 L-94,21 L-93,21 L-93,20 L-90,20 L-90,19 L-85,19 L-85,18 L-83,18 L-83,17 L-81,17 L-81,16 L-78,16 L-78,15 L-75,15 L-75,14 L-70,14 L-70,13 L-68,13 L-68,12 L-65,12 L-65,11 L-59,11 L-59,10 L-55,10 L-55,9 L-54,9 L-54,8 L-47,8 L-47,7 L-40,7 L-40,6 L-35,6 L-35,4 L-27,4 L-27,3 L-15,3 L-15,2 L-7,2 L-7,1 L0,1 Z " transform="translate(323,16)" style="fill: #54FE5B;"/><path d="M0,0 L1,0 L1,25 L2,25 L2,72 L3,72 L3,78 L2,78 L2,91 L1,91 L1,106 L0,106 L0,111 L-1,111 L-1,116 L-2,116 L-2,119 L-3,119 L-3,124 L-4,124 L-4,126 L-5,126 L-5,128 L-6,128 L-6,129 L-7,129 L-7,132 L-8,132 L-8,133 L-9,133 L-9,135 L-10,135 L-10,137 L-11,137 L-11,138 L-12,138 L-12,140 L-13,140 L-13,141 L-14,141 L-14,143 L-15,143 L-15,144 L-16,144 L-16,145 L-17,145 L-17,146 L-18,146 L-18,147 L-19,147 L-19,148 L-20,148 L-20,150 L-21,150 L-21,151 L-23,151 L-23,152 L-24,152 L-24,153 L-26,153 L-26,154 L-27,154 L-27,155 L-28,155 L-28,156 L-30,156 L-30,157 L-32,157 L-32,158 L-33,158 L-33,159 L-35,159 L-35,160 L-36,160 L-36,161 L-39,161 L-39,162 L-41,162 L-41,163 L-43,163 L-43,164 L-45,164 L-45,165 L-49,165 L-49,166 L-53,166 L-53,167 L-101,167 L-101,168 L-115,168 L-115,166 L-111,166 L-111,165 L-109,165 L-109,164 L-108,164 L-108,163 L-107,163 L-107,162 L-104,162 L-104,161 L-103,161 L-103,160 L-102,160 L-102,159 L-100,159 L-100,158 L-99,158 L-99,157 L-97,157 L-97,156 L-95,156 L-95,155 L-94,155 L-94,154 L-93,154 L-93,153 L-91,153 L-91,152 L-90,152 L-90,151 L-89,151 L-89,150 L-88,150 L-88,149 L-87,149 L-87,148 L-86,148 L-86,147 L-84,147 L-84,146 L-83,146 L-83,145 L-82,145 L-82,144 L-81,144 L-81,143 L-80,143 L-80,142 L-79,142 L-79,141 L-78,141 L-78,140 L-77,140 L-77,139 L-76,139 L-76,138 L-74,138 L-74,137 L-73,137 L-73,136 L-72,136 L-72,135 L-71,135 L-71,134 L-70,134 L-70,133 L-69,133 L-69,132 L-68,132 L-68,131 L-67,131 L-67,130 L-66,130 L-66,129 L-65,129 L-65,127 L-64,127 L-64,126 L-63,126 L-63,125 L-62,125 L-62,124 L-61,124 L-61,123 L-60,123 L-60,122 L-59,122 L-59,120 L-58,120 L-58,119 L-57,119 L-57,118 L-56,118 L-56,117 L-55,117 L-55,115 L-54,115 L-54,114 L-53,114 L-53,112 L-52,112 L-52,111 L-51,111 L-51,110 L-50,110 L-50,109 L-49,109 L-49,108 L-48,108 L-48,106 L-47,106 L-47,105 L-46,105 L-46,103 L-45,103 L-45,102 L-44,102 L-44,101 L-43,101 L-43,100 L-42,100 L-42,97 L-41,97 L-41,95 L-40,95 L-40,94 L-39,94 L-39,91 L-38,91 L-38,90 L-37,90 L-37,89 L-36,89 L-36,88 L-35,88 L-35,87 L-34,87 L-34,85 L-33,85 L-33,81 L-32,81 L-32,80 L-31,80 L-31,79 L-30,79 L-30,77 L-29,77 L-29,76 L-28,76 L-28,72 L-26,72 L-26,70 L-25,70 L-25,68 L-24,68 L-24,64 L-23,64 L-23,63 L-22,63 L-22,61 L-21,61 L-21,60 L-20,60 L-20,58 L-19,58 L-19,56 L-18,56 L-18,54 L-17,54 L-17,52 L-16,52 L-16,48 L-15,48 L-15,47 L-14,47 L-14,43 L-12,43 L-12,39 L-11,39 L-11,38 L-10,38 L-10,36 L-9,36 L-9,34 L-8,34 L-8,32 L-7,32 L-7,29 L-6,29 L-6,28 L-5,28 L-5,25 L-4,25 L-4,18 L-3,18 L-3,15 L-2,15 L-2,14 L-1,14 L-1,11 L0,11 Z " transform="translate(394,235)" style="fill: #98FAB3;"/><path d="M0,0 L6,0 L6,1 L7,1 L7,2 L8,2 L8,3 L9,3 L9,4 L10,4 L10,5 L11,5 L11,6 L12,6 L12,7 L13,7 L13,8 L14,8 L14,9 L15,9 L15,10 L16,10 L16,11 L17,11 L17,12 L19,12 L19,13 L20,13 L20,14 L22,14 L22,15 L23,15 L23,17 L24,17 L24,18 L26,18 L26,19 L27,19 L27,20 L28,20 L28,21 L29,21 L29,22 L30,22 L30,23 L31,23 L31,24 L32,24 L32,25 L33,25 L33,26 L34,26 L34,27 L35,27 L35,29 L37,29 L37,30 L38,30 L38,31 L39,31 L39,32 L40,32 L40,33 L41,33 L41,34 L42,34 L42,35 L43,35 L43,36 L44,36 L44,37 L45,37 L45,38 L46,38 L46,39 L47,39 L47,40 L48,40 L48,41 L49,41 L49,42 L50,42 L50,43 L51,43 L51,44 L52,44 L52,46 L54,46 L54,47 L55,47 L55,48 L56,48 L56,49 L57,49 L57,50 L58,50 L58,51 L59,51 L59,52 L60,52 L60,54 L61,54 L61,55 L62,55 L62,56 L63,56 L63,57 L64,57 L64,58 L65,58 L65,59 L66,59 L66,62 L65,62 L65,63 L64,63 L64,64 L63,64 L63,65 L62,65 L62,66 L61,66 L61,67 L60,67 L60,68 L59,68 L59,69 L58,69 L58,70 L57,70 L57,71 L56,71 L56,72 L55,72 L55,74 L54,74 L54,75 L53,75 L53,76 L52,76 L52,78 L50,78 L50,79 L49,79 L49,80 L48,80 L48,82 L43,82 L43,81 L42,81 L42,80 L40,80 L40,79 L39,79 L39,77 L38,77 L38,76 L37,76 L37,75 L36,75 L36,74 L35,74 L35,73 L34,73 L34,72 L33,72 L33,71 L32,71 L32,70 L31,70 L31,69 L30,69 L30,68 L29,68 L29,67 L28,67 L28,66 L27,66 L27,65 L26,65 L26,64 L25,64 L25,63 L24,63 L24,62 L23,62 L23,61 L22,61 L22,60 L21,60 L21,59 L19,59 L19,58 L18,58 L18,57 L16,57 L16,56 L15,56 L15,54 L14,54 L14,53 L13,53 L13,52 L12,52 L12,51 L11,51 L11,50 L10,50 L10,49 L9,49 L9,48 L7,48 L7,47 L6,47 L6,46 L5,46 L5,45 L4,45 L4,44 L3,44 L3,43 L2,43 L2,42 L1,42 L1,40 L0,40 L0,39 L-1,39 L-1,38 L-2,38 L-2,37 L-3,37 L-3,36 L-5,36 L-5,35 L-6,35 L-6,34 L-7,34 L-7,33 L-8,33 L-8,32 L-10,32 L-10,31 L-11,31 L-11,30 L-12,30 L-12,29 L-13,29 L-13,28 L-14,28 L-14,27 L-15,27 L-15,26 L-16,26 L-16,23 L-15,23 L-15,22 L-14,22 L-14,21 L-13,21 L-13,20 L-12,20 L-12,19 L-11,19 L-11,17 L-10,17 L-10,16 L-9,16 L-9,15 L-8,15 L-8,14 L-7,14 L-7,12 L-6,12 L-6,10 L-5,10 L-5,9 L-4,9 L-4,8 L-3,8 L-3,6 L-2,6 L-2,5 L-1,5 L-1,3 L0,3 Z " transform="translate(347,114)" style="fill: #F7FBFB;"/><path d="M0,0 L19,0 L19,1 L22,1 L22,2 L23,2 L23,3 L25,3 L25,4 L26,4 L26,5 L27,5 L27,6 L28,6 L28,7 L29,7 L29,8 L30,8 L30,9 L31,9 L31,10 L33,10 L33,11 L34,11 L34,12 L35,12 L35,14 L36,14 L36,19 L37,19 L37,20 L38,20 L38,23 L39,23 L39,32 L38,32 L38,36 L37,36 L37,38 L36,38 L36,39 L35,39 L35,43 L34,43 L34,44 L33,44 L33,45 L32,45 L32,46 L31,46 L31,47 L30,47 L30,49 L29,49 L29,50 L27,50 L27,51 L26,51 L26,52 L25,52 L25,53 L24,53 L24,54 L22,54 L22,55 L18,55 L18,56 L14,56 L14,57 L3,57 L3,56 L0,56 L0,55 L-2,55 L-2,54 L-5,54 L-5,53 L-6,53 L-6,52 L-8,52 L-8,51 L-9,51 L-9,50 L-10,50 L-10,49 L-11,49 L-11,47 L-12,47 L-12,46 L-13,46 L-13,44 L-14,44 L-14,43 L-15,43 L-15,40 L-16,40 L-16,38 L-17,38 L-17,37 L-18,37 L-18,20 L-17,20 L-17,16 L-16,16 L-16,14 L-15,14 L-15,13 L-14,13 L-14,10 L-13,10 L-13,9 L-12,9 L-12,8 L-11,8 L-11,7 L-10,7 L-10,6 L-9,6 L-9,5 L-7,5 L-7,3 L-5,3 L-5,2 L-1,2 L-1,1 L0,1 Z " transform="translate(217,263)" style="fill: #F9FBFA;"/><path d="M0,0 L2,0 L2,1 L4,1 L4,2 L5,2 L5,3 L6,3 L6,4 L7,4 L7,5 L8,5 L8,6 L9,6 L9,7 L10,7 L10,8 L11,8 L11,9 L13,9 L13,10 L14,10 L14,11 L15,11 L15,12 L16,12 L16,13 L18,13 L18,14 L19,14 L19,15 L20,15 L20,16 L21,16 L21,17 L23,17 L23,18 L24,18 L24,19 L25,19 L25,20 L27,20 L27,21 L29,21 L29,22 L30,22 L30,23 L32,23 L32,25 L35,25 L35,26 L37,26 L37,27 L39,27 L39,28 L40,28 L40,29 L41,29 L41,30 L44,30 L44,31 L46,31 L46,32 L47,32 L47,33 L48,33 L48,34 L50,34 L50,35 L51,35 L51,36 L53,36 L53,38 L55,38 L55,39 L56,39 L56,40 L58,40 L58,41 L59,41 L59,42 L61,42 L61,41 L62,41 L62,40 L63,40 L63,42 L62,42 L62,43 L61,43 L61,44 L60,44 L60,47 L59,47 L59,45 L56,45 L56,44 L55,44 L55,43 L53,43 L53,42 L51,42 L51,41 L49,41 L49,40 L48,40 L48,39 L46,39 L46,38 L45,38 L45,37 L44,37 L44,36 L42,36 L42,35 L40,35 L40,33 L39,33 L39,32 L37,32 L37,31 L35,31 L35,30 L34,30 L34,29 L32,29 L32,28 L31,28 L31,27 L29,27 L29,26 L28,26 L28,25 L27,25 L27,24 L25,24 L25,23 L24,23 L24,22 L22,22 L22,21 L21,21 L21,20 L19,20 L19,19 L18,19 L18,18 L16,18 L16,16 L14,16 L14,15 L13,15 L13,14 L11,14 L11,13 L10,13 L10,12 L9,12 L9,11 L8,11 L8,10 L7,10 L7,9 L6,9 L6,8 L5,8 L5,6 L4,6 L4,5 L3,5 L3,4 L2,4 L2,3 L1,3 L1,2 L0,2 Z " transform="translate(277,203)" style="fill: #67C8BC;"/><path d="M0,0 L2,0 L2,1 L3,1 L3,2 L4,2 L4,3 L6,3 L6,4 L7,4 L7,5 L8,5 L8,6 L9,6 L9,7 L10,7 L10,8 L11,8 L11,9 L12,9 L12,10 L13,10 L13,11 L14,11 L14,12 L15,12 L15,13 L17,13 L17,14 L18,14 L18,15 L19,15 L19,16 L20,16 L20,17 L21,17 L21,18 L23,18 L23,19 L24,19 L24,20 L25,20 L25,21 L26,21 L26,22 L28,22 L28,23 L30,23 L30,24 L32,24 L32,25 L33,25 L33,26 L34,26 L34,27 L36,27 L36,28 L37,28 L37,29 L39,29 L39,30 L40,30 L40,31 L41,31 L41,32 L43,32 L43,33 L45,33 L45,34 L46,34 L46,35 L47,35 L47,36 L49,36 L49,37 L50,37 L50,38 L54,38 L54,39 L55,39 L55,40 L57,40 L57,41 L58,41 L58,42 L60,42 L60,43 L61,43 L61,44 L62,44 L62,45 L64,45 L64,46 L66,46 L66,47 L65,47 L65,49 L64,49 L64,50 L63,50 L63,51 L62,51 L62,49 L61,49 L61,48 L59,48 L59,47 L58,47 L58,46 L56,46 L56,45 L55,45 L55,44 L54,44 L54,43 L53,43 L53,42 L51,42 L51,41 L49,41 L49,40 L48,40 L48,39 L46,39 L46,38 L45,38 L45,37 L43,37 L43,36 L42,36 L42,35 L40,35 L40,34 L38,34 L38,33 L37,33 L37,32 L36,32 L36,31 L34,31 L34,30 L33,30 L33,29 L31,29 L31,28 L29,28 L29,26 L27,26 L27,25 L25,25 L25,24 L24,24 L24,23 L22,23 L22,22 L21,22 L21,21 L20,21 L20,20 L18,20 L18,19 L17,19 L17,18 L16,18 L16,17 L15,17 L15,16 L14,16 L14,15 L12,15 L12,14 L11,14 L11,12 L10,12 L10,11 L9,11 L9,10 L8,10 L8,9 L7,9 L7,8 L6,8 L6,7 L5,7 L5,6 L4,6 L4,5 L3,5 L3,4 L2,4 L2,3 L1,3 L1,2 L0,2 Z " transform="translate(278,191)" style="fill: #4CC8BE;"/><path d="M0,0 L2,0 L2,1 L1,1 L1,2 L0,2 L0,3 L-1,3 L-1,4 L-2,4 L-2,5 L-3,5 L-3,6 L-4,6 L-4,7 L-5,7 L-5,8 L-6,8 L-6,9 L-7,9 L-7,10 L-8,10 L-8,11 L-9,11 L-9,12 L-10,12 L-10,13 L-11,13 L-11,14 L-12,14 L-12,15 L-13,15 L-13,16 L-14,16 L-14,17 L-15,17 L-15,18 L-16,18 L-16,19 L-17,19 L-17,20 L-18,20 L-18,21 L-19,21 L-19,19 L-18,19 L-18,18 L-17,18 L-17,17 L-16,17 L-16,16 L-15,16 L-15,15 L-14,15 L-14,14 L-13,14 L-13,13 L-12,13 L-12,12 L-11,12 L-11,10 L-10,10 L-10,9 L-9,9 L-9,8 L-8,8 L-8,7 L-7,7 L-7,6 L-6,6 L-6,5 L-4,5 L-4,4 L-3,4 L-3,3 L-2,3 L-2,2 L-1,2 L-1,1 L0,1 Z " transform="translate(146,141)" style="fill: #C5C9C7;"/><path d="M0,0 L2,0 L2,1 L5,1 L5,2 L8,2 L8,4 L6,4 L6,5 L9,5 L9,6 L5,6 L5,5 L4,5 L4,4 L1,4 L1,1 L0,1 Z " transform="translate(120,444)" style="fill: #8AACA7;"/><path d="M0,0 L2,0 L2,2 L1,2 L1,3 L-3,3 L-3,2 L-1,2 L-1,1 L0,1 Z " transform="translate(383,439)" style="fill: #B9BDBB;"/></svg>